<svg width="469" height="175" viewBox="0 0 469 175" fill="none" xmlns="http://www.w3.org/2000/svg">
<line x1="54.0005" y1="174.001" x2="54.0005" stroke="black"/>
<line y1="146.474" x2="464.001" y2="146.474" stroke="black"/>
<path d="M102.711 43.9916V86.0326H123.732C126.613 86.0326 129.323 85.4955 131.862 84.4213C134.401 83.2982 136.623 81.7845 138.527 79.8802C140.431 77.9759 141.92 75.7543 142.995 73.2152C144.118 70.6273 144.679 67.8929 144.679 65.0121C144.679 62.1312 144.118 59.4213 142.995 56.8822C141.92 54.2943 140.431 52.0482 138.527 50.1439C136.623 48.2396 134.401 46.7504 131.862 45.6761C129.323 44.5531 126.613 43.9916 123.732 43.9916H102.711ZM102.711 128H81.691V22.9711H123.732C127.589 22.9711 131.3 23.4838 134.865 24.5092C138.429 25.4857 141.75 26.9017 144.826 28.7572C147.951 30.5638 150.783 32.7611 153.322 35.349C155.91 37.8881 158.107 40.7201 159.914 43.8451C161.769 46.9701 163.185 50.3148 164.162 53.8793C165.187 57.4437 165.7 61.1547 165.7 65.0121C165.7 70.7738 164.601 76.2181 162.404 81.3451C160.207 86.4232 157.204 90.8666 153.395 94.6752C149.586 98.4838 145.119 101.487 139.992 103.684C134.914 105.881 129.494 106.98 123.732 106.98H102.711V128ZM196.095 128H175.954V18.3568H196.095V128ZM287.355 128H282.521L274.757 117.234C272.853 118.943 270.827 120.554 268.678 122.068C266.579 123.533 264.357 124.827 262.013 125.95C259.669 127.024 257.253 127.878 254.762 128.513C252.321 129.148 249.831 129.465 247.292 129.465C241.774 129.465 236.574 128.537 231.691 126.682C226.857 124.827 222.609 122.141 218.947 118.625C215.334 115.061 212.477 110.715 210.378 105.588C208.278 100.461 207.228 94.6263 207.228 88.0834C207.228 81.9799 208.278 76.389 210.378 71.3109C212.477 66.184 215.334 61.7894 218.947 58.1273C222.609 54.4652 226.857 51.6332 231.691 49.6312C236.574 47.5804 241.774 46.5551 247.292 46.5551C249.831 46.5551 252.345 46.8724 254.836 47.5072C257.326 48.142 259.743 49.0209 262.086 50.1439C264.43 51.267 266.652 52.5853 268.752 54.099C270.9 55.6127 272.902 57.2484 274.757 59.0062L282.521 49.7045H287.355V128ZM267.213 88.0834C267.213 85.349 266.676 82.7123 265.602 80.1732C264.577 77.5853 263.161 75.3148 261.354 73.3617C259.547 71.3597 257.423 69.7728 254.982 68.6009C252.589 67.3802 250.026 66.7699 247.292 66.7699C244.557 66.7699 241.969 67.2338 239.528 68.1615C237.135 69.0892 235.036 70.4564 233.229 72.2631C231.471 74.0697 230.08 76.3158 229.054 79.0013C228.029 81.6381 227.516 84.6654 227.516 88.0834C227.516 91.5013 228.029 94.5531 229.054 97.2386C230.08 99.8754 231.471 102.097 233.229 103.904C235.036 105.71 237.135 107.078 239.528 108.005C241.969 108.933 244.557 109.397 247.292 109.397C250.026 109.397 252.589 108.811 254.982 107.639C257.423 106.418 259.547 104.831 261.354 102.878C263.161 100.876 264.577 98.6058 265.602 96.0668C266.676 93.4789 267.213 90.8177 267.213 88.0834ZM371.217 65.1586L356.569 79.8802C355.836 77.8295 354.836 75.9984 353.566 74.3871C352.296 72.7269 350.856 71.3353 349.245 70.2123C347.682 69.0892 345.973 68.2347 344.118 67.6488C342.262 67.0629 340.358 66.7699 338.405 66.7699C335.67 66.7699 333.083 67.3314 330.641 68.4545C328.249 69.5775 326.149 71.1644 324.342 73.2152C322.585 75.2172 321.193 77.6097 320.168 80.3929C319.142 83.1761 318.629 86.2523 318.629 89.6215C318.629 92.3558 319.142 94.9193 320.168 97.3119C321.193 99.7045 322.585 101.804 324.342 103.611C326.149 105.417 328.249 106.833 330.641 107.859C333.083 108.884 335.67 109.397 338.405 109.397C340.358 109.397 342.238 109.128 344.044 108.591C345.851 108.054 347.536 107.297 349.098 106.321C350.71 105.295 352.126 104.075 353.346 102.659C354.616 101.194 355.641 99.5824 356.422 97.8246L371.071 112.546C369.215 115.183 367.067 117.551 364.626 119.651C362.233 121.75 359.621 123.533 356.789 124.997C354.005 126.462 351.051 127.561 347.926 128.293C344.85 129.075 341.676 129.465 338.405 129.465C332.887 129.465 327.687 128.44 322.804 126.389C317.97 124.289 313.722 121.433 310.06 117.82C306.447 114.206 303.59 109.983 301.491 105.149C299.391 100.315 298.341 95.139 298.341 89.6215C298.341 83.6156 299.391 78.0004 301.491 72.7758C303.59 67.5511 306.447 63.0101 310.06 59.1527C313.722 55.2465 317.97 52.1703 322.804 49.9242C327.687 47.6781 332.887 46.5551 338.405 46.5551C341.676 46.5551 344.875 46.9701 348 47.8002C351.173 48.6302 354.176 49.8509 357.008 51.4623C359.889 53.0248 362.526 54.9535 364.919 57.2484C367.36 59.5433 369.46 62.1801 371.217 65.1586ZM411.061 108.811C411.842 109.055 412.624 109.226 413.405 109.324C414.186 109.372 414.967 109.397 415.749 109.397C417.702 109.397 419.582 109.128 421.388 108.591C423.195 108.054 424.879 107.297 426.442 106.321C428.053 105.295 429.469 104.075 430.69 102.659C431.96 101.194 432.985 99.5824 433.766 97.8246L448.415 112.546C446.559 115.183 444.411 117.551 441.969 119.651C439.577 121.75 436.964 123.533 434.132 124.997C431.349 126.462 428.395 127.561 425.27 128.293C422.194 129.075 419.02 129.465 415.749 129.465C410.231 129.465 405.031 128.44 400.148 126.389C395.314 124.338 391.066 121.482 387.404 117.82C383.791 114.158 380.934 109.812 378.835 104.783C376.735 99.7045 375.685 94.1381 375.685 88.0834C375.685 81.8822 376.735 76.2181 378.835 71.0912C380.934 65.9642 383.791 61.5941 387.404 57.9808C391.066 54.3676 395.314 51.5599 400.148 49.558C405.031 47.556 410.231 46.5551 415.749 46.5551C419.02 46.5551 422.218 46.9457 425.343 47.7269C428.468 48.5082 431.422 49.6312 434.206 51.0961C437.038 52.5609 439.674 54.3676 442.116 56.516C444.557 58.6156 446.706 60.9838 448.561 63.6205L411.061 108.811ZM421.315 67.5756C420.387 67.2338 419.46 67.014 418.532 66.9164C417.653 66.8187 416.725 66.7699 415.749 66.7699C413.014 66.7699 410.426 67.2826 407.985 68.308C405.592 69.2845 403.493 70.7006 401.686 72.556C399.928 74.4115 398.537 76.6576 397.511 79.2943C396.486 81.8822 395.973 84.8119 395.973 88.0834C395.973 88.8158 395.998 89.6459 396.046 90.5736C396.144 91.5013 396.266 92.4535 396.413 93.4301C396.608 94.3578 396.828 95.2611 397.072 96.14C397.316 97.0189 397.633 97.8002 398.024 98.4838L421.315 67.5756Z" fill="black"/>
</svg>
